HIERARCHY
ROOT Hips
{
    OFFSET 0.000000 0.000000 0.000000
    CHANNELS 6 Xposition Yposition Zposition Zrotation Yrotation Xrotation
    JOINT Chest
    {
        OFFSET 0.000000 1.634758 -0.000000
        CHANNELS 3 Zrotation Yrotation Xrotation
        JOINT Chest2
        {
            OFFSET 0.000000 2.197341 0.000000
            CHANNELS 3 Zrotation Yrotation Xrotation
            JOINT Neck
            {
                OFFSET 0.000000 0.961544 0.000000
                CHANNELS 3 Zrotation Yrotation Xrotation
                JOINT Head
                {
                    OFFSET 0.000000 0.632542 -0.032565
                    CHANNELS 3 Zrotation Yrotation Xrotation
                    End Site
                    {
                        OFFSET -0.000001 0.439502 2.922845
                    }
                }
            }
            JOINT LeftCollar
            {
                OFFSET 0.167536 0.778237 -0.168280
                CHANNELS 3 Zrotation Yrotation Xrotation
                JOINT LeftShoulder
                {
                    OFFSET 0.831514 -0.002900 0.006458
                    CHANNELS 3 Zrotation Yrotation Xrotation
                    JOINT LeftElbow
                    {
                        OFFSET 2.272872 -0.026639 0.059314
                        CHANNELS 3 Zrotation Yrotation Xrotation
                        JOINT LeftWrist
                        {
                            OFFSET 2.081982 -0.024402 0.054333
                            CHANNELS 3 Zrotation Yrotation Xrotation
                            JOINT LeftHandThumb1
                            {
                                OFFSET 0.218903 -0.128645 0.283837
                                CHANNELS 3 Zrotation Yrotation Xrotation
                                JOINT LeftHandThumb2
                                {
                                    OFFSET 0.137157 -0.025101 0.077902
                                    CHANNELS 3 Zrotation Yrotation Xrotation
                                    JOINT LeftHandThumb3
                                    {
                                        OFFSET 0.150116 -0.081661 -0.065849
                                        CHANNELS 3 Zrotation Yrotation Xrotation
                                        End Site
                                        {
                                            OFFSET 0.057064 -0.067051 -0.253149
                                        }
                                    }
                                }
                            }
                            JOINT LeftHandFore1
                            {
                                OFFSET 0.767340 -0.016076 0.196678
                                CHANNELS 3 Zrotation Yrotation Xrotation
                                JOINT LeftHandFore2
                                {
                                    OFFSET 0.022648 -0.215582 0.002626
                                    CHANNELS 3 Zrotation Yrotation Xrotation
                                    JOINT LeftHandFore3
                                    {
                                        OFFSET -0.126143 0.026663 0.011830
                                        CHANNELS 3 Zrotation Yrotation Xrotation
                                        End Site
                                        {
                                            OFFSET -0.038758 0.188890 0.013596
                                        }
                                    }
                                }
                            }
                            JOINT LeftHandMiddle1
                            {
                                OFFSET 0.709887 -0.008320 0.018526
                                CHANNELS 3 Zrotation Yrotation Xrotation
                                JOINT LeftHandMiddle2
                                {
                                    OFFSET 0.043786 -0.240818 0.012389
                                    CHANNELS 3 Zrotation Yrotation Xrotation
                                    JOINT LeftHandMiddle3
                                    {
                                        OFFSET -0.146076 0.002496 -0.006240
                                        CHANNELS 3 Zrotation Yrotation Xrotation
                                        End Site
                                        {
                                            OFFSET -0.060947 0.227683 -0.008729
                                        }
                                    }
                                }
                            }
                            JOINT LeftHandRing1
                            {
                                OFFSET 0.743817 -0.005823 -0.153668
                                CHANNELS 3 Zrotation Yrotation Xrotation
                                JOINT LeftHandRing2
                                {
                                    OFFSET 0.054885 -0.348080 0.023696
                                    CHANNELS 3 Zrotation Yrotation Xrotation
                                    JOINT LeftHandRing3
                                    {
                                        OFFSET -0.135910 0.008780 -0.007539
                                        CHANNELS 3 Zrotation Yrotation Xrotation
                                        End Site
                                        {
                                            OFFSET -0.031441 0.115268 -0.012024
                                        }
                                    }
                                }
                            }
                            JOINT LeftHandLittle1
                            {
                                OFFSET 0.689408 -0.053302 -0.308304
                                CHANNELS 3 Zrotation Yrotation Xrotation
                                JOINT LeftHandLittle2
                                {
                                    OFFSET 0.055164 -0.186839 0.010114
                                    CHANNELS 3 Zrotation Yrotation Xrotation
                                    JOINT LeftHandLittle3
                                    {
                                        OFFSET -0.119128 -0.006807 -0.016075
                                        CHANNELS 3 Zrotation Yrotation Xrotation
                                        End Site
                                        {
                                            OFFSET -0.008793 0.189197 -0.020390
                                        }
                                    }
                                }
                            }
                        }
                    }
                }
            }
            JOINT RightCollar
            {
                OFFSET -0.167536 0.778237 -0.168280
                CHANNELS 3 Zrotation Yrotation Xrotation
                JOINT RightShoulder
                {
                    OFFSET -0.831514 -0.002900 0.006457
                    CHANNELS 3 Zrotation Yrotation Xrotation
                    JOINT RightElbow
                    {
                        OFFSET -2.272872 -0.026639 0.059313
                        CHANNELS 3 Zrotation Yrotation Xrotation
                        JOINT RightWrist
                        {
                            OFFSET -2.081982 -0.024402 0.054331
                            CHANNELS 3 Zrotation Yrotation Xrotation
                            JOINT RightHandThumb1
                            {
                                OFFSET -0.218911 -0.128571 0.283837
                                CHANNELS 3 Zrotation Yrotation Xrotation
                                JOINT RightHandThumb2
                                {
                                    OFFSET -0.137157 -0.025101 0.077902
                                    CHANNELS 3 Zrotation Yrotation Xrotation
                                    JOINT RightHandThumb3
                                    {
                                        OFFSET -0.120526 -0.134493 -0.030408
                                        CHANNELS 3 Zrotation Yrotation Xrotation
                                        End Site
                                        {
                                            OFFSET 0.028155 -0.219236 -0.151588
                                        }
                                    }
                                }
                            }
                            JOINT RightHandFore1
                            {
                                OFFSET -0.767344 -0.015991 0.196679
                                CHANNELS 3 Zrotation Yrotation Xrotation
                                JOINT RightHandFore2
                                {
                                    OFFSET -0.022696 -0.215580 0.002649
                                    CHANNELS 3 Zrotation Yrotation Xrotation
                                    JOINT RightHandFore3
                                    {
                                        OFFSET 0.125552 0.026337 -0.017468
                                        CHANNELS 3 Zrotation Yrotation Xrotation
                                        End Site
                                        {
                                            OFFSET 0.038112 0.188556 -0.019001
                                        }
                                    }
                                }
                            }
                            JOINT RightHandMiddle1
                            {
                                OFFSET -0.709887 -0.008302 0.018525
                                CHANNELS 3 Zrotation Yrotation Xrotation
                                JOINT RightHandMiddle2
                                {
                                    OFFSET -0.043759 -0.240816 0.012439
                                    CHANNELS 3 Zrotation Yrotation Xrotation
                                    JOINT RightHandMiddle3
                                    {
                                        OFFSET 0.144950 0.002045 -0.019229
                                        CHANNELS 3 Zrotation Yrotation Xrotation
                                        End Site
                                        {
                                            OFFSET 0.060135 0.227346 -0.018105
                                        }
                                    }
                                }
                            }
                            JOINT RightHandRing1
                            {
                                OFFSET -0.743819 -0.005785 -0.153669
                                CHANNELS 3 Zrotation Yrotation Xrotation
                                JOINT RightHandRing2
                                {
                                    OFFSET -0.054895 -0.348070 0.023817
                                    CHANNELS 3 Zrotation Yrotation Xrotation
                                    JOINT RightHandRing3
                                    {
                                        OFFSET 0.129630 0.007459 -0.041778
                                        CHANNELS 3 Zrotation Yrotation Xrotation
                                        End Site
                                        {
                                            OFFSET 0.032016 0.115408 -0.008733
                                        }
                                    }
                                }
                            }
                            JOINT RightHandLittle1
                            {
                                OFFSET -0.689403 -0.053298 -0.308303
                                CHANNELS 3 Zrotation Yrotation Xrotation
                                JOINT RightHandLittle2
                                {
                                    OFFSET -0.055154 -0.186842 0.010158
                                    CHANNELS 3 Zrotation Yrotation Xrotation
                                    JOINT RightHandLittle3
                                    {
                                        OFFSET 0.115612 -0.006663 -0.032942
                                        CHANNELS 3 Zrotation Yrotation Xrotation
                                        End Site
                                        {
                                            OFFSET 0.016634 0.188946 0.017648
                                        }
                                    }
                                }
                            }
                        }
                    }
                }
            }
        }
    }
    JOINT LeftHip
    {
        OFFSET 0.685143 0.673822 -0.044491
        CHANNELS 3 Zrotation Yrotation Xrotation
        JOINT LeftKnee
        {
            OFFSET 0.085364 -3.750208 0.017676
            CHANNELS 3 Zrotation Yrotation Xrotation
            JOINT LeftAnkle
            {
                OFFSET 0.094583 -4.155206 0.019585
                CHANNELS 3 Zrotation Yrotation Xrotation
                JOINT LeftToe
                {
                    OFFSET -0.000000 -0.395925 0.621478
                    CHANNELS 3 Zrotation Yrotation Xrotation
                    End Site
                    {
                        OFFSET -0.000000 -0.077878 0.321152
                    }
                }
            }
        }
    }
    JOINT RightHip
    {
        OFFSET -0.685143 0.673822 -0.044492
        CHANNELS 3 Zrotation Yrotation Xrotation
        JOINT RightKnee
        {
            OFFSET -0.085364 -3.750208 0.017677
            CHANNELS 3 Zrotation Yrotation Xrotation
            JOINT RightAnkle
            {
                OFFSET -0.094583 -4.155206 0.019585
                CHANNELS 3 Zrotation Yrotation Xrotation
                JOINT RightToe
                {
                    OFFSET -0.000000 -0.395925 0.621478
                    CHANNELS 3 Zrotation Yrotation Xrotation
                    End Site
                    {
                        OFFSET -0.000000 -0.077878 0.321152
                    }
                }
            }
        }
    }
}
MOTION
Frames: 6
Frame Time: 0.033333
-0.025228 8.269821 -0.496257 180.000000 -0.000011 180.000000 0.485327 0.928077 2.509295 -2.331939 0.005654 -3.924417 -18.378908 9.386941 -11.835299 -1.116212 20.725689 -21.018167 -5.778704 -0.599024 0.015136 -20.216297 12.965803 2.418717 0.112673 -31.364933 -0.408656 10.245547 10.673335 -16.645950 0.000002 0.000013 0.000017 -1.565631 0.379186 -0.137317 -0.575178 3.868917 1.781371 -4.997912 0.070821 0.251417 -6.553897 0.276004 -0.186620 -3.664599 0.162334 -0.172813 -4.482430 -0.195500 0.240435 -5.819798 -0.192193 0.295559 -3.868078 -0.130946 0.200865 -4.514750 -0.492745 0.126353 -5.144366 -0.345374 0.384459 -3.778877 -0.254996 0.126059 -4.717529 -0.666670 0.411005 -5.271077 -0.871350 0.072152 -4.058660 -0.547687 0.447934 3.087971 6.605292 -0.032693 11.247367 23.167482 3.974026 -0.000000 -0.000003 -0.000000 -18.593075 -31.852266 -75.853188 -0.000002 0.000005 0.000000 -0.549990 -1.149706 0.999615 3.347957 -2.204497 1.509942 4.997896 -0.069891 0.251592 6.535672 0.393560 0.458194 3.651121 0.231858 0.322983 4.482409 0.196201 0.239980 5.782395 0.171430 0.731987 3.844230 0.122383 0.478153 4.514764 0.492577 0.125144 4.952179 -0.027814 1.480527 3.583670 -0.006887 1.231280 4.717631 0.666407 0.409405 4.815926 -1.029573 2.029000 3.875862 -0.659593 1.202362 0.111930 8.866898 -3.262651 0.030749 0.281505 12.465275 -8.835003 -0.059655 -11.963181 -0.118200 -1.273817 -8.329123 0.627671 -2.263473 -2.960410 -0.029589 -0.276258 12.229253 6.665204 -3.188886 -14.225545 0.093801 0.693731 -5.930014
-0.025228 8.269821 -0.496257 180.000000 -0.000011 180.000000 -0.103934 1.786905 1.328258 -1.972876 -0.136944 -3.595242 -16.523293 10.162227 -10.352404 -1.150418 21.304531 -17.684185 -5.472131 -0.093493 -0.001599 -19.263113 14.692424 1.861686 0.123156 -32.592533 -0.428595 15.823436 7.296695 -21.008339 0.000006 0.000018 0.000014 -1.992106 0.581988 -0.138264 -0.720596 4.999789 2.294821 -6.484657 0.067363 0.315560 -8.447014 0.351577 -0.246258 -4.712859 0.206708 -0.224102 -5.812205 -0.264077 0.307351 -7.525617 -0.242737 0.385651 -5.000869 -0.166698 0.261296 -5.859717 -0.634109 0.180707 -6.689615 -0.442205 0.505811 -4.850629 -0.325735 0.164836 -6.104280 -0.847287 0.541220 -6.828898 -1.127176 0.108773 -5.306883 -0.709484 0.593270 3.033633 6.180654 -0.020909 10.750147 20.860909 4.212153 -0.000001 -0.000002 -0.000000 -23.297480 -29.365040 -72.100418 0.000005 0.000016 -0.000009 -0.611673 -1.501066 1.310465 4.313728 -2.863225 1.925970 6.484654 -0.066176 0.315731 8.423939 0.497243 0.598600 4.695630 0.294342 0.418025 5.812119 0.264963 0.306749 7.477488 0.207583 0.949454 4.970079 0.152113 0.619592 5.859745 0.633935 0.179145 6.438936 -0.061133 1.924081 4.599852 -0.022840 1.580141 6.104483 0.846974 0.539179 6.231866 -1.365938 2.611307 5.064188 -0.878456 1.562652 0.020678 7.156220 -3.234758 0.030731 0.281425 12.461636 -10.580285 1.820660 -12.056938 -0.135873 -1.560990 -8.655641 0.301921 -8.161299 -3.062658 -0.029572 -0.276177 12.225598 12.811824 -0.566058 -12.633136 0.185627 1.699054 -7.394773
-0.025228 8.269821 -0.496257 180.000000 -0.000011 180.000000 -0.718487 2.553542 0.202131 -1.583759 -0.270392 -3.173692 -14.413948 10.405334 -8.599061 -1.132797 21.006987 -14.205029 -6.109549 0.276238 -0.019063 -22.111250 18.197361 1.415632 0.183465 -38.488670 -0.532855 25.967491 2.552861 -28.864923 -0.000003 0.000012 -0.000003 -2.371830 0.812453 -0.120869 -0.845875 6.043479 2.766507 -7.869298 0.052511 0.371218 -10.184271 0.419149 -0.303156 -5.669957 0.246391 -0.271657 -7.048889 -0.332970 0.367705 -9.102665 -0.287074 0.470261 -6.047611 -0.198655 0.317785 -7.113203 -0.763137 0.238518 -8.135547 -0.529798 0.621642 -5.824848 -0.389406 0.201228 -7.388121 -1.007667 0.665161 -8.275124 -1.363626 0.149000 -6.487922 -0.859581 0.733942 3.550300 5.383455 -0.006858 12.360443 17.601479 4.471118 -0.000000 0.000002 0.000000 -31.767534 -18.126232 -72.566803 0.000003 0.000015 -0.000001 -0.622553 -1.834022 1.605325 5.200353 -3.476622 2.299849 7.869296 -0.051090 0.371358 10.156921 0.588281 0.730398 5.649412 0.349871 0.505769 7.048827 0.334023 0.366948 9.044621 0.235289 1.151343 6.010546 0.177116 0.750813 7.113279 0.762937 0.236620 7.829683 -0.102723 2.338136 5.523390 -0.042718 1.896940 7.388341 1.007281 0.662717 7.543238 -1.690947 3.144301 6.187010 -1.092298 1.899213 -0.006987 6.634092 -3.224542 0.030715 0.281349 12.458278 -13.000545 2.338816 -11.835437 -0.161297 -2.030303 -9.087707 -0.092303 -15.395145 -3.144246 -0.029554 -0.276094 12.221888 22.212097 0.387765 -9.224124 0.249225 4.202917 -10.234126
-0.025228 8.269821 -0.496257 180.000000 -0.000011 180.000000 -1.335234 3.188570 -0.863895 -1.176254 -0.391847 -2.756835 -12.164394 10.184904 -6.738882 -1.071497 19.962389 -10.679399 -7.428926 0.488577 -0.042741 -28.342781 22.811460 1.061461 0.323253 -47.755032 -0.737553 42.510124 4.680586 -36.856548 0.000004 0.000012 -0.000005 -2.705137 1.064135 -0.087636 -0.952703 6.995355 3.195141 -9.144317 0.027609 0.419067 -11.759729 0.478888 -0.356525 -6.533348 0.281480 -0.315103 -8.186053 -0.401340 0.421509 -10.543900 -0.325519 0.548637 -7.003738 -0.226951 0.369867 -8.268286 -0.879354 0.298202 -9.473293 -0.608194 0.730768 -6.699429 -0.446021 0.234821 -8.563028 -1.148204 0.781266 -9.602478 -1.579644 0.191151 -7.592927 -0.997289 0.868294 4.580000 4.112407 0.013592 16.016766 13.122899 4.699601 -0.000002 0.000002 0.000000 -45.747765 -8.093506 -76.434006 0.000003 -0.000005 0.000003 -0.588481 -2.146786 1.881554 6.005306 -4.040515 2.632435 9.144277 -0.026026 0.419154 11.728635 0.667344 0.852229 6.509804 0.398694 0.585712 8.186008 0.402549 0.420606 10.476767 0.255770 1.336413 6.960904 0.197878 0.871035 8.268368 0.879170 0.295999 9.115901 -0.150125 2.720201 6.352372 -0.064901 2.181049 8.563336 1.147777 0.778467 8.743993 -1.999818 3.626820 7.236036 -1.298229 2.210139 -0.023660 6.316960 -3.217436 0.030698 0.281270 12.454752 -13.487604 2.798752 -11.878064 -0.165176 -2.122627 -9.180306 -0.675016 -25.821751 -3.173350 -0.029536 -0.276016 12.218290 31.256523 6.214367 -2.370289 0.280510 7.134374 -11.373333
-0.025228 8.269821 -0.496257 180.000000 -0.000011 180.000000 -1.951505 3.641018 -2.204131 -0.779958 -0.495497 -2.785105 -9.858055 9.663804 -4.721707 -0.979817 18.373951 -6.823793 -8.318494 0.455886 -0.066098 -34.517433 28.521343 0.833467 0.714048 -61.162624 -1.215596 59.754387 12.940090 -40.995041 0.000008 0.000015 -0.000005 -2.992290 1.330577 -0.040926 -1.042718 7.850874 3.579365 -10.302077 -0.005894 0.459557 -13.167306 0.531048 -0.405545 -7.300163 0.312117 -0.354121 -9.217174 -0.468321 0.468650 -11.842145 -0.358461 0.620048 -7.864703 -0.251680 0.417165 -9.317925 -0.982426 0.358170 -10.694045 -0.677505 0.831888 -7.472323 -0.495615 0.265220 -9.623022 -1.269327 0.888004 -10.803733 -1.774220 0.233587 -8.612838 -1.122059 0.994605 5.776731 2.813990 0.037803 19.959080 -10.059712 5.140247 -0.203232 40.096508 -0.564215 -58.661209 -15.943278 -76.541214 -0.000004 -0.000007 -0.000009 -0.515379 -2.437090 2.136647 6.725881 -4.550874 2.924520 10.302040 0.007627 0.459531 13.132897 0.735140 0.962868 7.274081 0.441050 0.657323 9.217062 0.469665 0.467583 11.766880 0.270237 1.503546 7.816673 0.214848 0.979576 9.318017 0.982268 0.355691 10.289240 -0.200828 3.067640 7.084799 -0.087936 2.431790 9.623298 1.268864 0.884847 9.828418 -2.287931 4.057810 8.203148 -1.493259 2.493698 -0.040352 5.999834 -3.210148 0.030680 0.281189 12.451050 -13.379922 3.200115 -12.009704 -0.163752 -2.085816 -9.140950 -1.347591 -36.682938 -3.067869 -0.029520 -0.275939 12.214750 37.257092 11.208664 5.452341 0.285528 9.439789 -11.890370
-0.025228 8.269821 -0.496257 180.000000 -0.000011 180.000000 -2.530356 3.874027 -3.575692 -0.394781 -0.566366 -3.110578 -7.603041 8.992693 -2.801270 -0.876715 16.552120 -3.105492 -8.574883 0.146725 -0.082488 -47.155399 32.304371 -12.447382 1.784157 -74.212837 -2.365678 66.381035 9.952024 -27.773092 0.000014 0.000010 -0.000001 -3.233400 1.605168 0.016760 -1.117424 8.605484 3.917637 -11.335088 -0.046514 0.493020 -14.400843 0.575723 -0.449591 -7.967982 0.338366 -0.388448 -10.135682 -0.532997 0.508950 -12.990519 -0.386244 0.683856 -8.625785 -0.272957 0.459274 -10.255253 -1.072072 0.416838 -11.789087 -0.737821 0.923850 -8.141217 -0.538196 0.292065 -10.562009 -1.371501 0.983907 -11.871578 -1.946357 0.274753 -9.538860 -1.233328 1.111168 6.659866 1.800756 0.058718 36.079666 -23.813459 -15.303514 -0.833003 63.630875 -1.349974 -64.357086 -15.153635 -70.204735 0.000010 -0.000003 0.000015 -0.409096 -2.702533 2.368212 7.359405 -5.003774 3.176829 11.335099 0.048396 0.492921 14.363770 0.792319 1.061176 7.939651 0.477158 0.720139 10.135673 0.534454 0.507776 12.908059 0.279891 1.651602 8.573183 0.228490 1.075726 10.255376 1.071980 0.414155 11.341231 -0.252367 3.378564 7.718595 -0.110449 2.648550 10.562394 1.371007 0.980507 10.790553 -2.550799 4.436315 9.080114 -1.674395 2.748212 -0.057064 5.682702 -3.202856 0.030662 0.281110 12.447518 -13.122812 3.397070 -12.154959 -0.162380 -2.009616 -9.010419 -1.978408 -45.220402 -2.845282 -0.029502 -0.275855 12.211208 38.664139 15.078155 10.334896 0.223481 10.252007 -12.375269
